<?xml version="1.0" encoding="utf-8"?>
<!-- Generator: Adobe Illustrator 26.0.3, SVG Export Plug-In . SVG Version: 6.00 Build 0)  -->
<svg version="1.0" id="katman_1" xmlns="http://www.w3.org/2000/svg" xmlns:xlink="http://www.w3.org/1999/xlink" x="0px" y="0px"
	 viewBox="0 0 600 450" style="enable-background:new 0 0 600 450;" xml:space="preserve">
<style type="text/css">
	.st0{fill:#FFFFFF;}
	.st1{fill:#213E7A;}
	.st2{fill:#E5262A;}
</style>
<path class="st0" d="M127.6,120.1h175v209.6h-175V120.1z"/>
<path class="st1" d="M459,108.8H141.3c-14.2,0-25.7,11.2-25.7,25.1v182.8c0,13.8,11.5,25.1,25.7,25.1H459
	c14.2,0,25.7-11.3,25.7-25.1V134C484.7,120.1,473.2,108.8,459,108.8z M300.1,328.2H141.3c-6.4,0-11.7-5.1-11.7-11.4V134
	c0-6.3,5.2-11.4,11.7-11.4h158.8V328.2z"/>
<path class="st0" d="M349.3,232.1c0,6-2.9,10-7.8,10c-4.3,0-7.9-4.1-7.9-9.5c0-5.6,3.2-9.8,7.9-9.8
	C346.5,222.8,349.3,227.1,349.3,232.1C349.3,232.1,349.3,232.1,349.3,232.1z M320.7,266.2h12.9v-20.3h0.1c2.4,4.4,7.3,6.1,11.8,6.1
	c11.1,0,17.1-9.2,17.1-20.2c0-9-5.7-18.9-16-18.9c-5.9,0-11.4,2.4-13.9,7.6h-0.1v-6.7h-11.9L320.7,266.2
	C320.7,266.2,320.7,266.2,320.7,266.2z M380.4,239.3c0-3.6,3.4-5,7.8-5l5.5,0.2c0,4.4-3.1,8.8-8,8.8
	C382.7,243.4,380.4,241.9,380.4,239.3z M406.4,251.2c-0.5-2.9-0.8-5.9-0.7-8.8v-13.9c0-11.4-8.3-15.5-17.8-15.5
	c-5.5,0-10.3,0.8-14.9,2.7l0.2,8.8c3.6-2,7.8-2.8,11.9-2.8c4.7,0,8.5,1.4,8.5,6.5c-2-0.3-4-0.5-6-0.5c-6.9,0-19.3,1.4-19.3,12.8
	c0,8.1,6.6,11.8,14,11.8c5.3,0,8.9-2.1,11.8-6.7h0.1l0.3,5.9L406.4,251.2C406.4,251.2,406.4,251.2,406.4,251.2z M412.2,266.2
	c2.7,0.6,5.3,0.9,8,0.9c11.9,0,14.7-9.1,18.3-18.5l13.7-34.8h-12.9l-7.7,24.4h-0.1l-8-24.4h-13.9l15.2,38.2
	c-0.9,3.3-3.4,5.2-6.5,5.2c-1.8,0-3.4-0.2-5.1-0.8L412.2,266.2C412.3,266.2,412.2,266.2,412.2,266.2z"/>
<path class="st2" d="M161.3,232.2c0-5.1,2.5-9.3,7.3-9.3c5.8,0,8.3,4.7,8.3,8.8c0,5.7-3.7,9.6-8.3,9.6
	C164.7,241.3,161.3,238,161.3,232.2z M189.4,213.8h-11.7v6.7h-0.1c-2.7-4.6-7.2-7.6-12.7-7.6c-11.6,0-16.9,8.3-16.9,19.4
	c0,11.1,6.4,18.8,16.7,18.8c5.2,0,9.5-2,12.6-6.4h0.1v2c0,7.3-4,10.8-11.5,10.8c-5.4,0-8.7-1.1-12.6-3.1l-0.7,10.2
	c3,1.1,8.1,2.4,14.3,2.4c15.1,0,22.6-5,22.6-20.3L189.4,213.8C189.4,213.8,189.4,213.8,189.4,213.8z M211.2,198.2h-12.9v9.5h12.9
	V198.2z M198.3,251.2h12.9v-37.4h-12.9V251.2z M247.2,213.3c-1.4-0.3-2.9-0.4-4.4-0.4c-5.6,0-8.8,3-11.1,7.8h-0.1v-6.9h-11.8v37.4
	h12.9v-15.8c0-7.3,3.4-11.7,9.4-11.7c1.5,0,2.9,0,4.4,0.4L247.2,213.3C247.2,213.4,247.2,213.3,247.2,213.3z M269.5,243
	c-6,0-8.4-5-8.4-10.5c0-5.6,2.4-10.5,8.4-10.5c6,0,8.4,5,8.4,10.5C277.9,238,275.4,243,269.5,243z M269.5,252
	c12.4,0,21.8-7.2,21.8-19.5c0-12.4-9.4-19.6-21.8-19.6c-12.4,0-21.8,7.2-21.8,19.6C247.7,244.9,257.1,252,269.5,252z"/>
</svg>
