<?xml version="1.0" encoding="utf-8"?>
<!-- Generator: Adobe Illustrator 26.0.3, SVG Export Plug-In . SVG Version: 6.00 Build 0)  -->
<svg version="1.0" id="katman_1" xmlns="http://www.w3.org/2000/svg" xmlns:xlink="http://www.w3.org/1999/xlink" x="0px" y="0px"
	 viewBox="0 0 600 450" style="enable-background:new 0 0 600 450;" xml:space="preserve">
<style type="text/css">
	.st0{fill:#010202;}
</style>
<path class="st0" d="M513.5,249.2c-7.1,0-12.9,5.8-12.9,12.9c0,7.1,5.8,12.9,12.9,12.9c0,0,0,0,0,0c7.1,0,12.9-5.8,12.9-12.9
	C526.4,255,520.6,249.2,513.5,249.2 M471.2,209.4V205h20.5v68.6h-20.5v-4.4c-16.5,11.2-39,7-50.3-9.5s-7-39,9.5-50.3
	C442.8,201,458.9,201,471.2,209.4L471.2,209.4z M452.5,256.9c10.3,0,18.6-7.9,18.6-17.6c0-9.7-8.3-17.6-18.6-17.6
	c-10.3,0-18.6,7.9-18.6,17.6C433.9,249,442.3,256.9,452.5,256.9L452.5,256.9z M378.2,203.1c-8.2,0-16,2.5-21.1,9.6V205h-20.4v68.6
	h20.7v-36c0-10.4,7-15.5,15.4-15.5c9,0,14.2,5.4,14.2,15.4v36.2h20.5v-43.6C407.4,214,394.7,203.1,378.2,203.1 M306.9,213.9V205h-21
	v68.6H307v-32c0-10.8,11.7-16.6,19.8-16.6l0.2,0V205C318.7,205,311,208.6,306.9,213.9 M254.6,209.4V205h20.5v68.6h-20.5v-4.4
	c-16.5,11.2-39,7-50.3-9.5s-7-39,9.5-50.3C226.2,201,242.4,201,254.6,209.4L254.6,209.4z M236,256.9c10.3,0,18.6-7.9,18.6-17.6
	c0-9.7-8.3-17.6-18.6-17.6c-10.3,0-18.6,7.9-18.6,17.6C217.4,249,225.7,256.9,236,256.9L236,256.9z M168.2,273.5h21.5v-99.1h-21.5
	L168.2,273.5z M153.4,174.4h-22.3c0,18.2-8.4,35-23,46l-8.8,6.6l34.2,46.6h28.1l-31.4-42.9C145,215.8,153.4,195.9,153.4,174.4
	 M73.8,273.6h22.7v-99.2H73.8V273.6z"/>
</svg>
