<?xml version="1.0" encoding="utf-8"?>
<!-- Generator: Adobe Illustrator 25.0.1, SVG Export Plug-In . SVG Version: 6.00 Build 0)  -->
<svg version="1.0" id="katman_1" xmlns="http://www.w3.org/2000/svg" xmlns:xlink="http://www.w3.org/1999/xlink" x="0px" y="0px"
	 viewBox="0 0 800 600" style="enable-background:new 0 0 800 600;" xml:space="preserve">
<style type="text/css">
	.st0{fill:#5A78FF;}
	.st1{fill:#FFFFFF;}
	.st2{opacity:0.5;fill:none;enable-background:new    ;}
	.st3{opacity:0.25;}
	.st4{opacity:0.9;fill:none;enable-background:new    ;}
	.st5{opacity:0.7;fill:none;enable-background:new    ;}
</style>
<symbol  id="MobilePay" viewBox="-60.3 -37.7 120.5 75.3">
	<g transform="translate(3 3)">
		<g transform="translate(0 .013)">
			<path class="st0" d="M-59.5-40.7h113c2.1,0,3.8,1.7,3.8,3.8v67.8c0,2.1-1.7,3.8-3.8,3.8h-113c-2.1,0-3.8-1.7-3.8-3.8v-67.8
				C-63.3-39-61.6-40.7-59.5-40.7z"/>
			<path class="st1" d="M-7.9,7.7c-1.4,0-2.7-0.9-3.2-2.2l-12.1-29.2c-0.7-1.8,0.1-3.8,1.9-4.6c0,0,0,0,0,0l12.6-5.2
				c1.8-0.7,3.8,0.1,4.6,1.9c0,0,0,0,0,0L8-2.4c0.7,1.8-0.1,3.8-1.9,4.6L-6.5,7.4C-7,7.6-7.4,7.7-7.9,7.7z M-7.3-31.8
				c-0.2,0-0.4,0-0.6,0.1l-12.6,5.2c-0.8,0.3-1.2,1.3-0.9,2.1c0,0,0,0,0,0L-9.4,4.8C-9,5.7-8.1,6-7.3,5.7L5.4,0.5
				c0.8-0.3,1.2-1.3,0.9-2.1c0,0,0,0,0,0L-5.8-30.8C-6.1-31.4-6.7-31.8-7.3-31.8z"/>
			<path class="st2" d="M-5-28.9l1.7-0.7l4.8,11.5l-1.7,0.7L-5-28.9z"/>
			<path class="st2" d="M7.2-4.3L5.4-3.6L0-16.6l1.7-0.7L7.2-4.3z"/>
			<path class="st1" d="M3.3-12.2c-3.6,1.5-6.6,3.6-8.6,6.1l-5.1-12.3c2.3-2.7,5.3-4.8,8.6-6.1c3.6-1.5,7.3-2.2,10.4-1.8L13.6-14
				C10.1-14.3,6.5-13.7,3.3-12.2z"/>
			<g class="st3">
				<path class="st4" d="M3.3-12.2c-3.6,1.5-6.6,3.6-8.6,6.1l-5.1-12.3c2.3-2.7,5.3-4.8,8.6-6.1c3.6-1.5,7.3-2.2,10.4-1.8L13.6-14
					C10.1-14.3,6.5-13.7,3.3-12.2z"/>
				<path class="st5" d="M3.3-12.2c-3.6,1.5-6.6,3.6-8.6,6.1l-5.1-12.3c2.3-2.7,5.3-4.8,8.6-6.1c3.6-1.5,7.3-2.2,10.4-1.8L13.6-14
					C10.1-14.3,6.5-13.7,3.3-12.2z"/>
			</g>
			<path class="st1" d="M4.9-8.5C1-8.5-2.6-7.7-5.4-6.2v-12.4c3.2-1.6,6.7-2.4,10.3-2.3c3.9,0,7.6,0.7,10.3,2.3v12.5
				C12-7.8,8.5-8.6,4.9-8.5L4.9-8.5z M-42.7,28.1l3.2-10c0-0.1,0.2-0.2,0.3-0.3h1.6c0.1,0,0.3,0.1,0.3,0.3l2.5,6.3
				c0,0.1,0.2,0.1,0.2,0l2.5-6.3c0-0.1,0.2-0.2,0.3-0.3h1.6c0.1,0,0.3,0.1,0.3,0.3l3.1,10c0.1,0.1,0,0.3-0.1,0.3c0,0-0.1,0-0.1,0
				H-29c-0.1,0-0.3-0.1-0.3-0.2l-2-6.5c0-0.1-0.2-0.1-0.2,0l-2.4,6.5c0,0.2-0.2,0.3-0.3,0.3h-1.1c-0.2,0-0.3-0.1-0.3-0.3l-2.4-6.5
				c0-0.1-0.2-0.1-0.2,0l-2.1,6.5c0,0.1-0.2,0.2-0.3,0.2h-1.8c-0.1,0-0.2-0.1-0.2-0.2C-42.7,28.1-42.7,28.1-42.7,28.1z M-26.2,24.5
				c0-2.3,1.8-4.2,4.1-4.3c2.3,0,4.2,1.8,4.3,4.1c0,2.3-1.8,4.2-4.1,4.3c0,0-0.1,0-0.1,0c-2.2,0.1-4.1-1.7-4.2-3.9
				C-26.2,24.6-26.2,24.6-26.2,24.5z M-20,24.5c0.1-1.1-0.8-2.1-1.9-2.2c-1.1-0.1-2.1,0.8-2.2,1.9c0,0.1,0,0.2,0,0.3
				c-0.1,1.1,0.8,2.1,1.9,2.2c1.1,0.1,2.1-0.8,2.2-1.9C-20,24.7-20,24.6-20,24.5z M-14.1,27.8c-0.2-0.1-0.3-0.1-0.3,0.1v0.2
				c0,0.2-0.1,0.3-0.3,0.3h-1.5c-0.2,0-0.3-0.1-0.3-0.3v-10c0-0.2,0.1-0.3,0.3-0.3h1.5c0.2,0,0.3,0.1,0.3,0.3v2.8
				c0,0.2,0.1,0.3,0.4,0.1c0.6-0.4,1.3-0.7,2-0.7c2.1,0,3.8,1.8,3.8,4.1c0.1,2.2-1.6,4-3.7,4.1c0,0-0.1,0-0.1,0
				C-12.8,28.6-13.6,28.3-14.1,27.8z M-10.3,24.5c0.1-1.1-0.8-2.1-1.9-2.2s-2.1,0.8-2.2,1.9c0,0.1,0,0.1,0,0.2c0,1.2,0.9,2.1,2,2.2
				c0,0,0,0,0,0C-11.2,26.6-10.3,25.7-10.3,24.5C-10.3,24.5-10.3,24.5-10.3,24.5z M-6.9,18.5c0-0.7,0.5-1.2,1.2-1.2s1.2,0.5,1.2,1.2
				l0,0c0,0.7-0.5,1.2-1.2,1.2S-6.9,19.2-6.9,18.5z M-6.8,28.1v-7.3c0-0.2,0.1-0.3,0.3-0.3H-5c0.2,0,0.3,0.1,0.3,0.3v7.3
				c0,0.2-0.1,0.3-0.3,0.3h-1.5C-6.7,28.4-6.8,28.3-6.8,28.1L-6.8,28.1z M-2.9,25.7v-7.6c0-0.2,0.1-0.3,0.3-0.3h1.5
				c0.2,0,0.3,0.1,0.3,0.3v7.7c0,0.5,0.2,0.8,0.8,0.8c0.2,0,0.3,0.1,0.3,0.3v1.3c0,0.2-0.1,0.3-0.3,0.3C-2.1,28.5-2.9,27.8-2.9,25.7
				z M0.8,24.5c0-2.2,1.8-4.1,4.1-4.1s4.1,1.8,4.1,4.1c0,0,0,0,0,0c0,0.3-0.1,0.5-0.4,0.5H3.2C3.1,25,3,25.1,3,25.2
				c0.1,0.9,1,1.6,1.9,1.5c0.6,0,1.1-0.2,1.5-0.7c0.1-0.2,0.3-0.3,0.5-0.3h1.4c0.3,0,0.4,0.2,0.3,0.4c-1,2-3.5,2.9-5.5,1.9
				C1.7,27.5,0.8,26,0.8,24.5L0.8,24.5z M6.5,23.8c0.1,0,0.2,0,0.1-0.2c-0.2-0.9-0.9-1.5-1.8-1.5c-0.9,0-1.6,0.6-1.8,1.4
				c0,0.1,0,0.2,0.1,0.2C3.2,23.8,6.5,23.8,6.5,23.8z M10.2,28.1v-10c0-0.2,0.1-0.3,0.3-0.3h4.9c2.2,0,3.8,1.3,3.8,3.5
				c0,2.2-1.7,3.6-3.9,3.6h-2.6c-0.1,0-0.3,0.1-0.3,0.2c0,0,0,0,0,0.1v3c0,0.2-0.1,0.3-0.3,0.3h-1.6C10.4,28.4,10.2,28.3,10.2,28.1z
				 M15.3,23.1c0.9,0,1.7-0.8,1.7-1.7c0,0,0,0,0,0c0-0.9-0.6-1.6-1.5-1.7c0,0-0.1,0-0.1,0h-2.6c-0.2,0-0.3,0.1-0.3,0.3v2.8
				c0,0.2,0.1,0.3,0.3,0.3C12.7,23.1,15.3,23.1,15.3,23.1z M19.9,24.5c-0.1-2.2,1.6-4,3.8-4.1c0,0,0,0,0.1,0c0.8,0,1.5,0.3,2.1,0.8
				c0.1,0.1,0.3,0.1,0.3-0.1v-0.2c0-0.2,0.1-0.3,0.3-0.3h1.5c0.2,0,0.3,0.1,0.3,0.3V26c0,0.4,0.1,0.6,0.4,0.6c0.1,0,0.3,0.1,0.3,0.3
				v1.4c0,0.1-0.1,0.3-0.3,0.3c-1,0-1.6-0.3-2-0.9c-0.1-0.2-0.2-0.2-0.4,0c-0.7,0.7-1.6,1.1-2.5,1C21.6,28.6,19.9,26.7,19.9,24.5
				C19.9,24.5,19.9,24.5,19.9,24.5L19.9,24.5z M26.2,24.5c0.1-1.1-0.8-2.1-1.9-2.2c-1.1-0.1-2.1,0.8-2.2,1.9c0,0.1,0,0.2,0,0.3
				c-0.1,1.1,0.8,2.1,1.9,2.2c1.1,0.1,2.1-0.8,2.2-1.9C26.2,24.7,26.2,24.6,26.2,24.5z M29.6,31.1v-1.3c0-0.2,0.1-0.3,0.3-0.3
				c1,0.1,1.9-0.5,2.2-1.5c0.1-0.2,0-0.4-0.1-0.6L29.2,21c-0.1-0.1,0-0.3,0.1-0.4c0,0,0.1,0,0.1,0H31c0.2,0,0.3,0.1,0.3,0.3l1.8,4.2
				c0.1,0.3,0.3,0.3,0.5,0l1.7-4.2c0.1-0.2,0.1-0.3,0.3-0.3h1.5c0.1,0,0.3,0.1,0.3,0.3c0,0,0,0.1,0,0.1l-2.9,7
				c-1.1,2.5-2.2,3.5-4.5,3.5C29.8,31.5,29.6,31.3,29.6,31.1C29.6,31.1,29.6,31.1,29.6,31.1z"/>
		</g>
	</g>
</symbol>
<use xlink:href="#MobilePay"  width="120.5" height="75.3" x="-60.3" y="-37.7" transform="matrix(4.574 0 0 4.574 397.6686 305.8214)" style="overflow:visible;"/>
</svg>
