<?xml version="1.0" encoding="utf-8"?>
<!-- Generator: Adobe Illustrator 19.2.1, SVG Export Plug-In . SVG Version: 6.00 Build 0)  -->
<svg version="1.1" id="layer" xmlns="http://www.w3.org/2000/svg" xmlns:xlink="http://www.w3.org/1999/xlink" x="0px" y="0px"
	 viewBox="0 0 652 652" style="enable-background:new 0 0 652 652;" xml:space="preserve">
<style type="text/css">
	.st0{fill:#1F3A6A;}
	.st1{fill:#5DC4DF;}
	.st2{fill:#004D86;}
	.st3{fill:#059339;}
</style>
<polygon id="polygon79" class="st0" points="100.6,219.7 92.2,219.7 92.2,222 98.8,222 115.2,289.4 30.6,289.4 47,222 53.7,222 
	53.7,219.7 45.2,219.7 26.8,292.4 119,292.4 "/>
<path id="path81" class="st1" d="M89,190.4H56.7c-2,0-3.5,1.7-3.5,3.5v31.6h3.1V194c0-0.3,0.3-0.5,0.6-0.5h6.5v22.9h-6.2l8.7,9.2
	h14.1l8.7-9.2h-6v-23.1H89c0.3,0,0.6,0.3,0.6,0.5v31.7h3.1V194C92.6,191.9,91,190.4,89,190.4z"/>
<path class="st0" d="M66.1,264.7h13.6c0.9,0,1.7-0.8,1.5-1.7l-0.5-9c0-0.9-0.9-1.7-1.8-1.7h-12c-0.9,0-1.7,0.8-1.8,1.7l-0.5,9
	C64.6,263.9,65.2,264.7,66.1,264.7z M59.3,252.5H47.1c-0.9,0-1.8,0.8-2,1.7l-1.8,8.9c-0.1,0.9,0.4,1.7,1.3,1.7h13.7
	c0.9,0,1.8-0.8,1.8-1.7l0.8-9C61,253.3,60.3,252.5,59.3,252.5z M66.7,249.1h12.4c0.8,0,1.3-0.6,1.3-1.3l-0.4-7.2
	c0-0.8-0.6-1.3-1.4-1.3H67.4c-0.8,0-1.4,0.6-1.4,1.3l-0.4,7.2C65.3,248.4,66,249.1,66.7,249.1z M61,239.2H49.4
	c-0.8,0-1.4,0.6-1.5,1.3l-1.4,7.2c-0.1,0.8,0.4,1.3,1,1.3h12.6c0.8,0,1.4-0.6,1.4-1.3l0.6-7.2C62.2,239.8,61.6,239.2,61,239.2z
	 M98.3,249.1c0.8,0,1.1-0.6,1-1.3l-1.5-7.2c-0.1-0.8-0.9-1.3-1.7-1.3H84.7c-0.8,0-1.3,0.6-1.3,1.3l0.6,7.2c0,0.8,0.8,1.3,1.4,1.3
	H98.3z M67.2,236.2h11.4c0.6,0,1.1-0.5,1.1-1.1l-0.4-5.5c0-0.6-0.6-1.1-1.3-1.1H67.7c-0.6,0-1.1,0.5-1.3,1.1L66,235
	C66.1,235.7,66.6,236.2,67.2,236.2z M95.8,236.2c0.6,0,1-0.5,0.9-1.1l-1.1-5.5c-0.1-0.6-0.8-1.1-1.4-1.1H83.7c-0.6,0-1.1,0.5-1,1.1
	l0.5,5.5c0,0.6,0.6,1.1,1.3,1.1H95.8z M62.1,228.4H51.4c-0.6,0-1.3,0.5-1.4,1.1L49,235c-0.1,0.6,0.3,1.1,0.9,1.1h11.5
	c0.6,0,1.1-0.5,1.3-1.1l0.5-5.5C63,228.9,62.7,228.4,62.1,228.4z M101.2,264.7c0.9,0,1.5-0.8,1.3-1.7l-1.8-9c-0.1-0.9-1-1.7-2-1.7
	H86.5c-0.9,0-1.7,0.8-1.5,1.7l0.8,9c0.1,0.9,0.9,1.7,1.8,1.7H101.2z M79.5,268.8H66.2c-1.1,0-2,0.9-2.2,2l-0.6,11.3
	c-0.1,1.1,0.8,2,1.9,2h15.1c1.1,0,1.9-0.9,1.9-2l-0.6-11.3C81.6,269.7,80.7,268.8,79.5,268.8z M57.5,268.8H44.2
	c-1.1,0-2.2,0.9-2.4,1.9L39.6,282c-0.3,1,0.5,1.9,1.7,1.9h15.1c1.1,0,2-0.9,2.2-2l1-11.3C59.4,269.7,58.7,268.8,57.5,268.8z
	 M103.9,270.6c-0.3-1-1.3-1.9-2.4-1.9H88.2c-1.1,0-1.9,0.9-1.8,2l1,11.3c0.1,1.1,1,2,2.2,2h15.1c1.1,0,1.8-0.9,1.7-1.9L103.9,270.6z
	"/>
<path class="st0" d="M272.6,219.7h-12.8v72.6h12.8V219.7z M231.2,256.6c0,1.9,0,9.1-4.1,15.6c-4.4,6.8-10.8,10-16.5,10
	c-4.9,0-9.9-2.2-13.3-5.3c-5.1-5-6.7-13.2-6.7-21c0.1-10.9,3.3-17.1,8.4-21.9c2-2,6-4.6,11.3-4.6c3.6,0,8.3,1.4,12,4.4
	C231.6,241.6,231.2,255.8,231.2,256.6 M237.7,312.7c5.4-7.2,5.8-14.6,6.3-29.7l-0.1-63.1h-12.2V231c-0.4-0.6-2.8-4.2-5.9-6.8
	c-3.3-2.8-9.2-5.9-17.3-5.8c-7.3,0-13.1,2.8-15.9,4.6c-4.7,3.2-7.2,6.3-8.6,8.3c-5.6,7.8-7.2,17.2-7.2,25.2c0,2,0,9,2.2,15.4
	c0.5,1.8,3.1,9.9,10.1,16c4,3.3,10,6.5,19.2,6c5.1-0.3,12.2-2,17.3-6.3c1.7-1.4,2.7-2.4,4.9-5.5l-0.1,9.9c-0.3,3.3-0.5,6.4-1.7,9.7
	c-0.6,2-1.8,3.7-3.3,5.5c-3.5,4-7.9,6.2-16.4,6.4c-8.4,0-15.4-2-18.5-3.2c-3.5-1.3-5.6-2.7-7.2-3.5l-1.4,12.7c2,0.9,3.5,1.4,5.8,2.2
	c3.5,1.1,11.2,3.1,20.5,3.1c10,0,16.4-2.3,20.8-4.6C233.7,317.5,236,315,237.7,312.7 M258.9,202.5h14v-14.3h-14V202.5z M320.1,230.6
	c3.5,0,5.3,0.6,8.8,1.8v-12.8c-0.6,0-4.5-0.6-7.8-0.6c-5.3,0-11.9,1.3-17.1,7.4c-0.8,1-2,2.9-3.5,5.5l-0.6-12h-12.3
	c0.4,9.1,0.8,15.5,0.8,24.4c0,10.5-0.3,17.9-0.3,28.4v19.9h13.2v-35.7c0.4-6.9,0.8-16,7.8-22.2C313.8,230.6,318.4,230.6,320.1,230.6
	 M386.8,255.5c0,7.9-2.6,19.6-12.2,25c-2,1-5.3,2.6-10,2.6c-1.1,0-5-0.1-8.8-2c-0.8-0.4-1.7-0.9-3.5-2.3c-2-1.5-4.7-4.5-6.9-9.6
	c-1.9-4.4-2.6-9.2-2.4-14.1c0.3-10,4.4-17.2,8.8-20.9c2.9-2.4,7.4-5.1,14.2-5.1c11.2,0.1,16.3,7.8,18.7,13.7
	C385.4,244.8,386.8,249.7,386.8,255.5 M389.5,284.3c8.4-8.4,10.8-20,10.6-29.3c-0.4-17.8-9.7-28.6-18.6-33.2
	c-3.2-1.5-8.4-3.5-15.9-3.5c-16.3,0-26.8,8.4-31.8,17.1c-3.5,6.2-4.9,13.3-5,20.6c-0.1,14.6,5,23.1,11.3,29.2
	c1.5,1.3,3.1,2.4,4.6,3.3c4,2.7,9.9,4.9,19.5,4.9c7.4,0,12.2-1.4,15.4-2.9C383,289.5,386.7,287.4,389.5,284.3 M411.5,235.2
	c0.4,14.1,0.4,24,0.4,38.1c0,17.6-0.3,35.2-0.4,52.8h13v-43.5c2.2,2.6,2.6,3.3,4.1,4.6c3.5,3.1,9.3,6.5,17.8,6.5
	c2.6,0,14-0.1,22.8-9.9c10.8-11.7,9.9-27.4,9.9-29.7c-0.1-5-0.9-10.6-2.9-16c-3.5-9-11.7-20.1-28.9-20.1c-1.9,0-11.8,0-19.3,7.4
	c-1.4,1.1-2.3,2.4-4.5,5.3l-0.6-11h-12.2C411.3,225.5,411.3,229.4,411.5,235.2z M424.2,255.5c0-1.3,0.1-5.6,1.5-10
	c3.3-10.3,11-15.9,19.6-15.9c6.9,0,13.8,3.7,17.6,11.9c2.2,4.5,3.1,9.8,2.7,14.9c0,1.8-0.1,6-1.9,11.2c-4.7,13.5-15.5,14.9-19,14.9
	c-8.3,0-15.9-5.5-19.1-15.6C425.1,264.6,424.1,260.7,424.2,255.5z M613,219.7L596.8,259l-7.3,19l-0.5,1c-1.9-5.4-4.4-12.2-6.7-18.7
	l-15-40.6h-14l29.2,72.5l-14.2,33.7h12.9l45.6-106.3L613,219.7L613,219.7z M543.9,229.2c-3.7-6.3-13.6-10.8-24.9-10.8
	c-13.8,0-20.9,4.9-22.8,6.2V236c2.9-1.8,11.3-6.9,20.4-6.9c8.8,0,15.7,5,17.6,9.8c1,3.1,1.3,6.5,1.3,9.6c-3.3-0.1-6.9-0.3-10.4-0.3
	c-7.2,0-17.2,0.3-24.4,3.7c-5.5,2.7-13.2,7.8-13.2,19.5c0,7.9,3.7,13.8,7.3,16.8c4,3.3,9.6,4.7,15.1,5.1c8.3,0.3,15.4-2.3,19-4.7
	c3.2-2.4,5-4.6,7.7-7.7v11.5h11v-46.9C547.5,238.2,545.7,232,543.9,229.2z M535.6,259.7c0,4.7-0.4,7.6-1.1,9.8
	c-0.3,1-1.1,3.3-3.3,6.2c-4.1,5.8-11.2,7.7-16.3,7.7c-5.9,0-14-3.2-14-11.7c0-8.4,9.9-12.9,15.4-13.8c2.4-0.4,5.1-0.6,9.6-0.6
	c3.3,0,6.5,0.1,9.8,0.4C535.6,257.5,535.6,259.7,535.6,259.7z"/>
<path id="path127" class="st2" d="M508.2,367.8v7.9h-10.4v-7.9H508.2z M483.5,362.1v19.6c-1.9-2-3.7-3.3-5.5-4.1
	c-2.3-0.9-4.5-1.4-7-1.4c-4.7,0-9.2,1.8-12.8,5.1c-4,3.7-6,9-6,15.4c0,5.6,1.5,10.3,4.6,13.8c3.5,4,8.2,6,14.1,6
	c3.1,0,5.8-0.6,8.2-1.9c1.5-0.9,3.1-2.3,4.5-4.2v4.9H494v-53.2C493.9,362.1,483.5,362.1,483.5,362.1z M481,404.5
	c-2,2.6-4.5,3.9-7.7,3.9c-2.8,0-5.1-1-7.2-3.1c-2.2-2.2-3.2-4.9-3.2-8.4c0-2.8,0.8-5.1,2-7.3c2-3.1,4.7-4.5,8.3-4.5
	c2.9,0,5.3,1.1,7.2,3.3c1.9,2.3,2.9,5,2.9,8.4C483.5,399.7,482.7,402.3,481,404.5z M508.2,377.6v37.8h-10.4v-37.8H508.2z
	 M614.1,386.2v18.1c0,1,0.3,1.7,0.6,1.9c0.5,0.4,1.3,0.5,2.3,0.5h7v8.7h-13.5c-2.4,0-4.1-0.6-5.4-1.8c-1-1-1.5-2.9-1.5-5.4V364H614
	v13.5h9.9v8.8L614.1,386.2L614.1,386.2L614.1,386.2z M602.7,377.6h-12l-10.5,14.5v-27.9h-10.4V390c-0.8-2.6-1.9-4.6-3.5-6.7
	c-3.9-4.7-9.2-7.2-16-7.2c-3.9,0-7.4,0.9-10.5,2.7c-1.5,0.9-2.8,1.9-3.9,3.1v-4.4h-11.8c-2.2,0.3-4.1,0.8-5.9,1.7
	c-1.5,0.8-2.9,1.9-4,3.3c-1.3,1.5-1.9,3.5-1.9,6v26.8h10.4v-25.5c0.1-0.6,0.5-1.1,0.9-1.7c0.4-0.4,1-0.8,1.7-1.1
	c0.8-0.4,1.7-0.5,2.8-0.5h4.7c-1.5,3.1-2.3,6.4-2.3,9.9c0,5.6,1.8,10.3,5.1,13.8c4,4.2,9.2,6.4,15.5,6.4c4.6,0,9-1.5,12.7-4.4
	c2.3-1.8,4.1-4.1,5.6-7.2l-9.6-2.7c-0.6,1.3-1.5,2.3-2.7,3.1c-1.9,1.3-3.9,1.9-6,1.9c-3.2,0-5.6-1.1-7.7-3.3c-1.1-1.3-1.9-3.1-2.3-5
	h28.7v16.4h10.4v-15.7l10.5,15.7h12.1l-12.9-19.7L602.7,377.6z M541,392.9c0.4-2,1.1-3.6,2.2-4.7c1.8-2.2,4.1-3.2,7.2-3.2
	c3.2,0,5.6,1,7.6,3.2c1.1,1.3,1.8,2.8,2.2,4.7H541z"/>
<path class="st3" d="M389,455.1c-1.9-5.8,1.4-12,7.2-14c5.8-1.9,12,1.4,14,7.2c1.9,5.8-1.4,12-7.2,14
	C397.1,464.2,390.9,460.9,389,455.1z M365.3,455.6c-1.4-4.2,1-8.7,5.1-10c4.1-1.4,8.7,1,10,5.1c1.4,4.1-1,8.7-5.1,10
	C371.1,462.1,366.7,459.8,365.3,455.6z M347,446c-1.1-3.3,0.8-6.9,4.1-8.1c3.3-1.1,6.9,0.8,8.1,4.1c1.1,3.3-0.8,6.9-4.1,8.1
	C351.7,451.3,348.1,449.3,347,446z M437.9,377.6l-8.8,22.5l-7.7-22.5h-10.3h-0.8h-9.5v4.7c-1.5-1.8-3.1-3.2-4.4-3.9
	c-2.4-1.4-5-2.2-8.1-2.2c-3.6,0-6.8,0.9-9.7,2.7c-2.9,1.8-5,4-6.5,6.9c-0.5,1-1,2.2-1.4,3.3c-1.4-4-3.7-7.2-7.6-9.7
	c-3.2-2.2-6.7-3.2-10.5-3.2c-3.3,0-6,0.8-8.4,2.2c-1.4,0.9-2.8,2.2-4,3.9v-4.6h-10.4v52.8h10.4v-19.1c3.2,3.6,7.4,5.4,12.7,5.4
	c4.4,0,8.2-1.1,11.4-3.5c3.1-2.2,5-5,6.3-8.6c0.8,2,1.8,3.9,3.2,5.6c3.5,4.2,8.2,6.4,14,6.4c5.3,0,9.7-2.2,13.2-6.5v5.1h10.4v-35.6
	l12.4,34.7l-3.6,10.4c3.7-0.8,7.6,0.5,9.9,3.3l19.1-50.6C449.2,377.6,437.9,377.6,437.9,377.6z M358.6,404c-1.9,2.9-4.7,4.2-8.3,4.2
	c-2.9,0-5.3-1-7.3-3.1c-1.9-2-2.9-4.7-2.9-8.3c0-3.1,0.6-5.5,2-7.6c2-3.1,4.7-4.4,8.3-4.4c2.9,0,5.3,1.1,7.3,3.3
	c1.9,2.2,2.9,5,2.9,8.7C360.7,399.6,360,401.9,358.6,404z M398.2,404.4c-2,2.7-4.6,3.9-7.8,3.9c-2.7,0-4.9-1-6.7-2.9
	c-2.3-2.3-3.3-5.1-3.3-8.7c0-3.1,0.8-5.6,2.4-7.9c1.9-2.6,4.4-3.7,7.7-3.7c3.3,0,6,1.3,8.1,3.7c1.7,2.2,2.4,4.6,2.4,7.7
	C400.9,399.5,400,402.1,398.2,404.4z M423.6,444.5c4.2-1.4,6.5-5.8,5.3-10c-1.4-4.2-5.9-6.5-10-5.1c-4.2,1.4-6.5,5.8-5.1,10
	C414.8,443.4,419.3,445.7,423.6,444.5z"/>
</svg>
