<?xml version="1.0" encoding="utf-8"?>
<!-- Generator: Adobe Illustrator 23.0.1, SVG Export Plug-In . SVG Version: 6.00 Build 0)  -->
<svg version="1.1" id="Ebene_1" xmlns="http://www.w3.org/2000/svg" xmlns:xlink="http://www.w3.org/1999/xlink" x="0px" y="0px"
	 viewBox="0 0 96 64" style="enable-background:new 0 0 96 64;" xml:space="preserve">
<style type="text/css">
	.st0{fill:#EB6F93;}
	.st1{fill:#FFFFFF;}
</style>
<g>
	<path class="st0" d="M91,64H5c-2.8,0-5-2.2-5-5V5c0-2.8,2.2-5,5-5h86c2.8,0,5,2.2,5,5v54C96,61.8,93.8,64,91,64z"/>
	<path id="Sofort._1_" class="st1" d="M28.7,57.2c2.2,0,3.8-1.5,3.8-3.6c0-2-1.4-2.8-3.1-3.4c-1.1-0.3-1.8-0.6-1.8-1.3
		c0-0.7,0.5-1.2,1.2-1.2c0.6,0,1.1,0.4,1.5,0.9l1.8-1.1c-0.6-1.2-1.8-1.9-3.2-1.9c-2.2,0-3.6,1.6-3.6,3.4c0,1.4,0.9,2.6,3,3.2
		c1.2,0.3,1.9,0.6,1.9,1.5c0,0.9-0.6,1.4-1.5,1.4c-1,0-1.7-0.6-2.2-1.2L25,55.5C25.8,56.5,27.2,57.2,28.7,57.2z M37.5,57.2
		c-2.3,0-4.2-1.8-4.2-4.1c0-2.2,1.9-4.1,4.2-4.1c2.3,0,4.2,1.8,4.2,4.1C41.7,55.4,39.8,57.2,37.5,57.2z M37.5,55.2c1.1,0,2-0.9,2-2
		c0-1.2-0.9-2-2-2c-1.1,0-2,0.9-2,2C35.5,54.3,36.4,55.2,37.5,55.2z M47,47.9v-2h-0.3c-2.7,0-4,1.8-4,3.8V57h2.2v-3.2
		c0-1.1,0.8-1.8,2-1.9v-2.1c-0.9,0-1.6,0.3-2,0.8v-0.8C44.9,48.4,45.8,47.8,47,47.9z M51.8,57.2c-2.3,0-4.2-1.8-4.2-4.1
		c0-2.2,1.9-4.1,4.2-4.1c2.3,0,4.2,1.8,4.2,4.1C56,55.4,54.1,57.2,51.8,57.2z M51.8,55.2c1.1,0,2-0.9,2-2c0-1.2-0.9-2-2-2
		c-1.1,0-2,0.9-2,2C49.8,54.3,50.7,55.2,51.8,55.2z M59.3,50.2v-0.9h-2.1V57h2.2v-3.5c0-1.3,0.8-2,2.1-2v-2.3
		C60.4,49.1,59.7,49.5,59.3,50.2z M64.8,53.1v-1.9c0.5,0.5,1.2,0.8,2,0.8v-2.1c-1.2,0-2-0.8-2-1.9v-1.2h-2.2v6.4
		c0,2.1,1.3,3.8,4,3.8h0.3v-2C65.7,55,64.8,54.4,64.8,53.1z M69.5,57.2c0.8,0,1.5-0.7,1.5-1.5s-0.7-1.5-1.5-1.5
		c-0.8,0-1.5,0.7-1.5,1.5S68.7,57.2,69.5,57.2z"/>
	<g id="Icons-_x2F_-Pay-now-_x2F_-White_1_" transform="translate(36.000000, 5.000000)">
		<path id="_Path__1_" class="st1" d="M7.4,24.7c0.7,0.7,0.7,1.8,0,2.4l-0.1,0.1c-0.7,0.7-1.8,0.7-2.4,0L1,23.5
			c-1.1-1.1-1.2-2.4-0.5-3.1l0.1-0.1c0.6-0.6,1.5-0.6,2.1-0.1c0.3,0.2,0.7,0.2,1-0.1s0.2-0.7-0.1-1c-1.2-0.9-2.9-0.8-3.9,0.3
			l-0.1,0.1c-1.2,1.3-1,3.4,0.6,5l3.8,3.8c1.2,1.2,3.2,1.2,4.4-0.1l0.1-0.1c1.2-1.2,1.2-3.2-0.1-4.4c-0.3-0.3-0.7-0.3-1,0
			C7.1,24,7.1,24.4,7.4,24.7z"/>
		<path id="_Path_2_1_" class="st1" d="M5.1,4.1L6.7,17c0,0.4,0.4,0.6,0.8,0.6c0.4,0,0.6-0.4,0.6-0.8l-1.6-13l0-0.1
			C6.2,2.7,6.9,1.5,7.7,1.3c0.5-0.1,1,0,1.4,0.3S9.9,2.3,10,2.8l2.7,11.7c0.1,0.4,0.5,0.6,0.8,0.5c0.4-0.1,0.6-0.5,0.5-0.8L11.4,2.5
			c-0.2-0.8-0.7-1.6-1.4-2.1S8.3-0.2,7.5,0C5.8,0.3,4.7,2.3,5.1,4.1z"/>
		<path id="_Path_3_1_" class="st1" d="M19.5,19.3l3.1-15.5C23,2.1,22,0.4,20.4-0.1c-1.8-0.5-3.7,0.6-4.2,2.4l-3.4,11.8
			c-0.1,0.4,0.1,0.7,0.5,0.9s0.7-0.1,0.9-0.5l3.4-11.8C17.8,1.6,18.9,1,20,1.3c0.9,0.3,1.5,1.2,1.3,2.2L18.2,19
			c-0.1,0.4,0.2,0.7,0.5,0.8C19.1,19.9,19.5,19.6,19.5,19.3z"/>
		<path id="Shape_3_" class="st1" d="M11.7,34.2c-4.9,0-9-3.6-9-8.7c0-0.4-0.3-0.7-0.7-0.7s-0.7,0.3-0.7,0.7
			c0,5.9,4.8,10.1,10.4,10.1c0.4,0,0.7-0.3,0.7-0.7S12.1,34.2,11.7,34.2z"/>
		<path id="_Path_4_1_" class="st1" d="M9.3,22.1c-0.1,0.4-0.3,0.7-0.7,1l-0.1,0.1c-0.8,0.5-1.9,0.3-2.4-0.5l-3-4.5
			c-0.8-1.3-0.7-2.6,0.1-3.1L3.3,15c1-0.6,1.9-0.1,2.8,1.2l2.5,3.8c0.2,0.3,0.6,0.4,1,0.2c0.3-0.2,0.4-0.6,0.2-1l-2.5-3.8
			c-1.2-1.8-2.8-2.6-4.6-1.5l-0.2,0.1c-1.5,1-1.7,3.2-0.5,5l3,4.5c1,1.4,2.9,1.8,4.3,0.8l0.2-0.1c0.6-0.4,1-1,1.2-1.7
			c0.1-0.4-0.1-0.7-0.5-0.8C9.8,21.5,9.4,21.7,9.3,22.1z"/>
		<path id="Shape_2_" class="st1" d="M13.9,24.4c-1.4,0.8-2.3,2.3-2.4,4.6c0,0.4,0.3,0.7,0.7,0.7s0.7-0.3,0.7-0.7
			c0.1-2.1,0.9-3.2,2.2-3.7c0.7-0.3,1.5-0.3,2.1-0.2c0.1,0,0.1,0,0.2,0c0.9,0.2,1.2-1.2,0.3-1.4l-5.3-1.2c-2.5-0.7-2.9-1.6-2.4-3.1
			c0.2-0.7,0.6-1,1.2-1.1c0.4-0.1,0.9-0.1,1.3,0c0.1,0,0.2,0,0.3,0.1l8.1,1.9c0.1,0,0.1,0,0.2,0.1c0.1,0.1,0.3,0.2,0.4,0.3
			c0.5,0.6,0.8,1.7,0.7,3.5c-0.5,6.3-3.4,10.2-10.4,10.1c-0.4,0-0.7,0.3-0.7,0.7c0,0.4,0.3,0.7,0.7,0.7c7.8,0.1,11.2-4.5,11.8-11.4
			c0.2-2.1-0.2-3.6-1.1-4.5c-0.5-0.5-0.9-0.7-1.3-0.8l-8-1.9c-0.1,0-0.2,0-0.4-0.1c-0.6-0.1-1.2-0.1-1.8,0c-1.1,0.2-1.9,0.9-2.2,2.1
			c-0.7,2.2,0,4,3.4,4.9L13.9,24.4z"/>
	</g>
</g>
</svg>
